<mxfile host="Electron" modified="2024-05-08T06:02:03.166Z" agent="Mozilla/5.0 (Windows NT 10.0; Win64; x64) AppleWebKit/537.36 (KHTML, like Gecko) draw.io/23.0.2 Chrome/120.0.6099.109 Electron/28.1.0 Safari/537.36" etag="LLEdx3K33Nr7PvqKQ_zB" version="23.0.2" type="device">
  <diagram name="Halaman-1" id="BpjzQ2-27JFWHpgeAj9F">
    <mxGraphModel dx="1250" dy="544" grid="0" gridSize="10" guides="1" tooltips="1" connect="1" arrows="1" fold="1" page="0" pageScale="1" pageWidth="827" pageHeight="1169" math="0" shadow="0">
      <root>
        <mxCell id="0" />
        <mxCell id="1" parent="0" />
        <mxCell id="ygcugPUU3w7RQK7vtoXz-5" style="edgeStyle=none;curved=1;rounded=0;orthogonalLoop=1;jettySize=auto;html=1;exitX=1;exitY=0.5;exitDx=0;exitDy=0;entryX=0;entryY=0.25;entryDx=0;entryDy=0;fontSize=12;startSize=8;endSize=8;" edge="1" parent="1" source="ygcugPUU3w7RQK7vtoXz-1" target="ygcugPUU3w7RQK7vtoXz-4">
          <mxGeometry relative="1" as="geometry" />
        </mxCell>
        <mxCell id="ygcugPUU3w7RQK7vtoXz-8" value="(H1)" style="edgeLabel;html=1;align=center;verticalAlign=middle;resizable=0;points=[];fontSize=16;" vertex="1" connectable="0" parent="ygcugPUU3w7RQK7vtoXz-5">
          <mxGeometry x="-0.2237" relative="1" as="geometry">
            <mxPoint as="offset" />
          </mxGeometry>
        </mxCell>
        <mxCell id="ygcugPUU3w7RQK7vtoXz-1" value="Profitabilitas&lt;br&gt;(X&lt;font style=&quot;font-size: 16px;&quot;&gt;&lt;sub&gt;1&lt;/sub&gt;&lt;/font&gt;)" style="rounded=0;whiteSpace=wrap;html=1;fontSize=16;" vertex="1" parent="1">
          <mxGeometry x="-90" y="96" width="120" height="60" as="geometry" />
        </mxCell>
        <mxCell id="ygcugPUU3w7RQK7vtoXz-6" style="edgeStyle=none;curved=1;rounded=0;orthogonalLoop=1;jettySize=auto;html=1;exitX=1;exitY=0.5;exitDx=0;exitDy=0;entryX=0;entryY=0.5;entryDx=0;entryDy=0;fontSize=12;startSize=8;endSize=8;" edge="1" parent="1" source="ygcugPUU3w7RQK7vtoXz-2" target="ygcugPUU3w7RQK7vtoXz-4">
          <mxGeometry relative="1" as="geometry" />
        </mxCell>
        <mxCell id="ygcugPUU3w7RQK7vtoXz-9" value="(H2)" style="edgeLabel;html=1;align=center;verticalAlign=middle;resizable=0;points=[];fontSize=16;" vertex="1" connectable="0" parent="ygcugPUU3w7RQK7vtoXz-6">
          <mxGeometry x="-0.2216" y="2" relative="1" as="geometry">
            <mxPoint as="offset" />
          </mxGeometry>
        </mxCell>
        <mxCell id="ygcugPUU3w7RQK7vtoXz-2" value="Solvabilitas&lt;br&gt;(X&lt;font style=&quot;font-size: 16px;&quot;&gt;&lt;sub&gt;2&lt;/sub&gt;&lt;/font&gt;)" style="rounded=0;whiteSpace=wrap;html=1;fontSize=16;" vertex="1" parent="1">
          <mxGeometry x="-90" y="202" width="120" height="60" as="geometry" />
        </mxCell>
        <mxCell id="ygcugPUU3w7RQK7vtoXz-7" style="edgeStyle=none;curved=1;rounded=0;orthogonalLoop=1;jettySize=auto;html=1;exitX=1;exitY=0.5;exitDx=0;exitDy=0;entryX=0;entryY=0.75;entryDx=0;entryDy=0;fontSize=12;startSize=8;endSize=8;" edge="1" parent="1" source="ygcugPUU3w7RQK7vtoXz-3" target="ygcugPUU3w7RQK7vtoXz-4">
          <mxGeometry relative="1" as="geometry" />
        </mxCell>
        <mxCell id="ygcugPUU3w7RQK7vtoXz-10" value="(H3)" style="edgeLabel;html=1;align=center;verticalAlign=middle;resizable=0;points=[];fontSize=16;" vertex="1" connectable="0" parent="ygcugPUU3w7RQK7vtoXz-7">
          <mxGeometry x="-0.1339" y="1" relative="1" as="geometry">
            <mxPoint as="offset" />
          </mxGeometry>
        </mxCell>
        <mxCell id="ygcugPUU3w7RQK7vtoXz-3" value="Likuiditas&lt;br&gt;(X&lt;sub&gt;3&lt;/sub&gt;)" style="rounded=0;whiteSpace=wrap;html=1;fontSize=16;" vertex="1" parent="1">
          <mxGeometry x="-90" y="308" width="120" height="60" as="geometry" />
        </mxCell>
        <mxCell id="ygcugPUU3w7RQK7vtoXz-4" value="Opini Audit &lt;i&gt;Going Concern&lt;/i&gt;&lt;br&gt;(Y)" style="rounded=0;whiteSpace=wrap;html=1;fontSize=16;" vertex="1" parent="1">
          <mxGeometry x="197" y="202" width="120" height="60" as="geometry" />
        </mxCell>
      </root>
    </mxGraphModel>
  </diagram>
</mxfile>
